<svg xmlns="http://www.w3.org/2000/svg" viewBox="0 0 927.62 246.7"><polygon points="373.32 0 363.25 0 312.84 0 312.69 0 259.63 90.59 241.84 120.71 241.84 120.98 241.84 138.26 278.59 138.26 292.18 138.26 292.18 138.26 372.93 138.26 393.54 103.43 312.96 103.43 323.03 86.21 403.61 86.21 413.6 69.01 413.6 51.65 343 51.65 353.02 34.56 353.1 34.56 433.73 34.56 443.72 17.36 443.72 0 373.32 0" style="fill:#fff"/><polygon points="245.62 0 232.47 0 201.96 0 175.22 0 165.14 0 151.4 0 121.41 0 114.73 0 114.58 0 70.85 0 0 120.98 0 138.26 50.35 138.26 111.18 34.56 131.17 34.56 80.56 120.98 80.56 138.26 130.9 138.26 191.74 34.56 212.23 34.56 161.62 120.98 161.62 138.26 211.97 138.26 283.03 17.13 283.03 0 245.62 0" style="fill:#fff"/><polygon points="524.31 0 474.1 0 473.75 0 402.91 120.98 402.91 138.26 439.66 138.26 453.25 138.26 534 138.26 554.61 103.43 473.95 103.43 514.14 34.56 595 34.56 604.99 17.36 604.99 0 524.31 0" style="fill:#fff"/><polygon points="524.51 51.65 605.03 51.65 635.13 0 685.69 0 685.69 17.13 665.54 51.65 685.59 51.65 715.69 0 766.25 0 766.25 17.13 695.19 138.26 644.84 138.26 644.84 120.98 665.45 86.21 645.37 86.21 614.63 138.26 564.28 138.26 564.28 120.98 584.89 86.21 504.35 86.21 524.51 51.65" style="fill:#fff"/><path d="M979.71,16.65h-107l-70.85,121v17.28H852.2l30.74-52H903L882.4,137.63v17.28h50.35l71.06-121.13V16.65ZM903.1,68.3l10-17.09h20l-10,17.09Z" transform="translate(-76.19 -16.65)" style="fill:#fff"/><path d="M972.35,235.7" transform="translate(-76.19 -16.65)" style="fill:#fff;opacity:0.3799999952316284;isolation:isolate"/><path d="M207.09,174H122.46L88.36,232.2l-.16,0L76.71,251.61v11.65h85l19.52-33.62-6.31-11.11h12.77l14-23.79,0-.12,5.49-9.45V174Zm-71.3,66.49h-13l6.41-10.81H142Zm19.35-33.14H142l6.48-11h13.06Z" transform="translate(-76.19 -16.65)" style="fill:#fff"/><path d="M317.29,174H232.66l-34.27,58.51L186.9,251.93v11.34h32.52l19.92-33.62h12.83l-12.83,22.28v11.34h32.52l19.52-33.62-6.31-11.11h12.77l14-23.79,0-.12,5.49-9.45V174Zm-58.58,22.32h13.06l-6.43,11h-13.1Z" transform="translate(-76.19 -16.65)" style="fill:#fff"/><polygon points="354.56 246.62 363.05 246.62 382.76 246.62 400.03 246.62 406.54 246.62 415.41 246.62 434.78 246.62 439.1 246.62 439.19 246.62 467.44 246.62 513.2 168.48 513.2 157.32 480.68 157.32 441.39 224.29 428.48 224.29 461.17 168.48 461.17 157.32 428.65 157.32 389.36 224.29 376.13 224.29 408.81 168.48 408.81 157.32 376.29 157.32 330.4 235.55 330.4 246.62 354.56 246.62" style="fill:#fff"/><path d="M411,174H341.85l-45.76,78.14v11.16h32.52l19.86-33.62h13l-13.31,22.46v11.16h32.52L426.55,185V174Zm-49.48,33.35,6.44-11h12.94l-6.43,11Z" transform="translate(-76.19 -16.65)" style="fill:#fff"/><polygon points="564.46 224.12 551.15 246.62 492.86 246.62 492.86 235.28 504.35 215.83 538.62 157.32 577.78 157.32 538.79 224.12 564.46 224.12" style="fill:#fff"/><polygon points="661.56 157.32 655.06 157.32 622.5 157.32 622.4 157.32 588.14 215.83 576.64 235.28 576.64 235.46 576.64 246.62 600.38 246.62 609.16 246.62 609.16 246.62 661.31 246.62 674.62 224.12 622.58 224.12 629.08 213 681.13 213 687.58 201.88 687.58 190.67 641.98 190.67 648.45 179.64 648.5 179.64 700.58 179.64 707.03 168.53 707.03 157.32 661.56 157.32" style="fill:#fff"/><path d="M894.13,174H809.5l-34.27,58.51-11.49,19.45v11.34h32.52l19.92-33.62H829l-12.83,22.28v11.34H848.7l19.52-33.62-6.31-11.11h12.77l14-23.79,0-.12,5.49-9.45Zm-58.58,22.32h13.06l-6.43,11h-13.1Z" transform="translate(-76.19 -16.65)" style="fill:#fff"/><polygon points="901.52 190.76 862.56 190.76 869.03 179.72 921.16 179.72 927.61 168.61 927.61 157.4 842.99 157.4 823.3 191.02 816.9 201.86 823.46 213.08 862.46 213.08 855.91 224.2 803.88 224.2 803.77 224.38 803.68 224.38 800.29 230.22 797.23 235.36 797.23 235.49 797.23 246.7 881.85 246.7 881.9 246.7 908.16 201.75 901.52 190.76" style="fill:#fff"/></svg>